<?xml version="1.0" standalone="no"?>
<!DOCTYPE svg PUBLIC "-//W3C//DTD SVG 20010904//EN"
 "http://www.w3.org/TR/2001/REC-SVG-20010904/DTD/svg10.dtd">
<svg version="1.0" xmlns="http://www.w3.org/2000/svg"
 width="512.000000pt" height="512.000000pt" viewBox="0 0 512.000000 512.000000"
 preserveAspectRatio="xMidYMid meet">

<g transform="translate(0.000000,512.000000) scale(0.100000,-0.100000)"
fill="#000000" stroke="none">
<path d="M1081 5104 c-194 -52 -316 -207 -336 -426 l-7 -77 -292 -3 -293 -3
-48 -30 c-36 -22 -57 -45 -77 -84 l-28 -53 0 -803 0 -803 28 -53 c20 -39 41
-62 77 -84 l48 -30 294 -3 293 -3 0 -89 0 -90 -283 0 -283 0 -55 -27 c-40 -21
-61 -40 -84 -77 l-30 -49 -3 -812 -2 -812 28 -54 c20 -39 41 -62 77 -84 l48
-30 293 -3 292 -3 7 -77 c8 -87 35 -176 69 -230 34 -54 109 -125 164 -155 100
-54 128 -57 608 -57 431 0 442 0 468 21 33 26 36 77 5 105 -20 18 -47 19 -483
24 l-461 5 -50 27 c-109 58 -164 147 -165 265 l0 72 448 3 449 3 48 30 c36 22
57 45 77 84 l28 53 0 640 0 640 43 -7 c84 -15 248 -65 339 -106 209 -93 245
-96 374 -35 76 36 108 69 102 107 -3 20 7 26 95 56 l99 33 26 -31 c25 -30 28
-31 84 -25 l58 6 0 -639 0 -639 28 -53 c20 -39 41 -62 77 -84 l48 -30 450 -3
449 -3 -4 -82 c-3 -51 -11 -95 -22 -115 -28 -54 -86 -112 -140 -140 l-51 -27
-842 -5 c-782 -5 -844 -6 -860 -22 -26 -26 -22 -86 6 -109 22 -18 57 -19 845
-19 895 0 882 -1 988 57 135 74 217 209 233 385 l7 77 292 3 293 3 48 30 c36
22 57 45 77 84 l28 53 0 803 0 803 -28 53 c-20 39 -41 62 -77 84 l-48 30 -294
3 -293 3 0 89 0 89 293 3 294 3 48 30 c36 22 57 45 77 84 l28 53 0 803 0 803
-28 53 c-20 39 -41 62 -77 84 l-48 30 -293 3 -292 3 -7 77 c-20 222 -142 375
-340 427 -87 22 -2870 22 -2954 -1z m2975 -166 c54 -28 112 -86 140 -140 11
-20 19 -64 22 -115 l4 -82 -449 -3 -450 -3 -48 -30 c-36 -22 -57 -45 -77 -84
l-28 -53 0 -514 0 -514 -610 0 -610 0 0 141 c0 77 -4 149 -10 159 -13 25 -65
41 -95 30 -39 -15 -45 -40 -45 -189 l0 -141 -96 0 c-79 0 -95 2 -91 14 22 58
31 116 31 211 1 194 -58 331 -203 475 -137 136 -276 194 -466 194 -190 0 -329
-58 -466 -194 -147 -145 -204 -281 -203 -480 1 -96 5 -128 27 -195 36 -108 89
-194 168 -274 79 -79 166 -132 274 -168 78 -26 86 -27 388 -31 l307 -4 0 -74
0 -74 -639 0 -640 0 -20 26 c-21 26 -21 33 -21 801 l0 774 25 24 24 25 776 0
776 0 24 -25 c25 -24 25 -25 25 -229 0 -112 3 -212 6 -221 11 -28 58 -46 92
-34 50 17 53 34 50 280 l-3 226 -30 48 c-22 36 -45 57 -84 77 l-53 28 -439 0
-439 0 0 73 c0 93 28 156 98 218 93 84 -33 78 1577 76 l1430 -2 51 -27z m889
-513 l25 -24 0 -774 c0 -768 0 -775 -21 -801 l-20 -26 -640 0 -639 0 0 75 0
75 423 0 c267 0 436 4 460 11 60 16 114 72 133 135 9 33 13 67 9 87 -4 17 -63
141 -131 274 l-124 242 0 190 0 191 29 0 c69 0 104 89 52 131 -22 18 -46 19
-356 19 -310 0 -334 -1 -356 -19 -52 -42 -17 -131 52 -131 l29 0 0 -192 0
-191 -67 -148 -68 -148 -207 -1 -208 0 0 500 0 501 25 24 24 25 776 0 776 0
24 -25z m-3813 -305 c59 -18 148 -65 148 -78 0 -4 -71 -79 -159 -166 l-158
-158 -194 112 c-107 61 -196 113 -198 116 -7 7 41 55 102 100 128 95 299 123
459 74z m3138 -250 l0 -210 125 -242 c69 -134 128 -251 131 -260 3 -10 -4 -26
-15 -37 -19 -19 -33 -21 -156 -21 l-135 0 0 83 c0 103 -12 145 -51 183 -29 28
-34 29 -149 34 l-118 5 59 129 59 128 0 209 0 209 125 0 125 0 0 -210z m-2834
-8 c17 -34 37 -89 44 -122 16 -78 8 -229 -16 -292 l-18 -48 -192 0 -191 0 -7
31 c-3 17 -6 61 -6 98 l0 66 167 167 c92 93 172 167 177 165 6 -2 24 -31 42
-65z m-737 -168 l201 -116 0 -234 0 -233 -32 6 c-95 18 -212 85 -278 160 -52
59 -84 115 -110 193 -19 56 -21 80 -17 175 4 96 17 165 31 165 2 0 95 -52 205
-116z m3011 -519 l0 -65 -1325 0 -1325 0 0 65 0 65 1325 0 1325 0 0 -65z
m-2240 -615 l0 -90 -285 0 -285 0 0 90 0 90 285 0 285 0 0 -90z m2750 0 l0
-90 -285 0 -285 0 0 90 0 90 285 0 285 0 0 -90z m-2750 -369 c0 -178 -5 -173
182 -186 l143 -10 3 -638 2 -638 -24 -24 -25 -25 -776 0 -776 0 -24 25 -25 24
0 776 0 776 25 24 24 25 636 0 635 0 0 -129z m3475 104 l25 -24 0 -776 0 -776
-25 -24 -24 -25 -776 0 -776 0 -25 25 -24 24 2 638 3 638 143 10 c187 13 182
8 182 186 l0 129 635 0 636 0 24 -25z"/>
<path d="M2136 4799 c-19 -15 -26 -30 -26 -54 0 -24 7 -39 26 -54 26 -20 39
-21 299 -21 252 0 275 1 296 19 17 13 23 29 23 56 0 27 -6 43 -23 56 -21 18
-44 19 -296 19 -260 0 -273 -1 -299 -21z"/>
<path d="M2889 4801 c-49 -40 -18 -131 46 -131 38 0 75 37 75 75 0 62 -72 96
-121 56z"/>
<path d="M1053 2010 c-12 -5 -26 -17 -32 -28 -13 -24 -231 -912 -231 -938 1
-49 58 -79 107 -59 39 16 28 -18 164 537 65 270 99 426 95 442 -3 14 -20 32
-36 41 -33 17 -36 17 -67 5z"/>
<path d="M446 1671 c-143 -145 -148 -151 -142 -183 5 -25 40 -67 149 -175 120
-119 148 -143 173 -143 62 0 98 55 70 108 -8 15 -58 70 -110 122 l-96 94 104
106 c61 62 107 117 112 134 10 42 -22 80 -72 84 -38 3 -42 0 -188 -147z"/>
<path d="M1261 1794 c-39 -49 -29 -68 100 -199 l99 -100 -96 -95 c-52 -52
-102 -107 -110 -122 -28 -53 8 -108 70 -108 26 0 54 23 178 148 122 122 148
153 148 177 0 23 -26 55 -147 177 -137 138 -150 148 -184 148 -29 0 -43 -6
-58 -26z"/>
<path d="M4414 2101 c-21 -16 -217 -208 -435 -427 -383 -385 -397 -401 -412
-454 -33 -117 -57 -219 -57 -242 0 -37 37 -88 78 -105 36 -15 42 -15 167 17
72 18 141 38 155 45 14 7 87 76 163 152 150 152 160 171 112 218 -42 43 -68
34 -162 -57 l-84 -82 -62 62 -62 62 340 340 340 340 62 -62 63 -63 -155 -155
c-136 -136 -155 -159 -155 -188 0 -42 30 -72 73 -72 29 0 52 19 209 178 110
110 179 187 183 205 14 56 -3 93 -83 178 -103 110 -144 139 -197 139 -31 0
-53 -8 -81 -29z m-661 -1053 c-37 -9 -69 -15 -71 -14 -1 2 5 34 14 71 l17 67
54 -54 54 -53 -68 -17z"/>
</g>
</svg>
